#Comment line ignore any data following # character 
#Hierarchical Translation and Rotation (.htr) file 
[Header]	
#Header keywords are followed by a single value 
FileType HTR		#Single word string
DataType HTRS		#Translation followed by rotation and scale data
FileVersion 1		#integer
NumSegments 84		#integer
NumFrames 2		#integer
DataFrameRate 30		#integer, data frame rate in this file
EulerRotationOrder ZYX
CalibrationUnits mm
RotationUnits Degrees
GlobalAxisofGravity Y
BoneLengthAxis Y
ScaleFactor 1.00
[SegmentNames&Hierarchy]
#CHILD	PARENT
MASTER GLOBAL
root MASTER
chest root
L_mid_tent01 root
R_mid_tent01 root
spine01 root
Bip01_Neck chest
L_humerus chest
R_humerus chest
weapon_bone chest
Bip01_Head Bip01_Neck
eye_left_bone Bip01_Head
eye_right_bone Bip01_Head
L_forearm L_humerus
L_front_hand L_forearm
L_weapon_bone L_forearm
L_front_hand01_01 L_front_hand
L_front_hand02_01 L_front_hand
L_front_hand03_01 L_front_hand
L_front_hand01_02 L_front_hand01_01
L_front_hand02_02 L_front_hand02_01
L_front_hand03_02 L_front_hand03_01
R_forearm R_humerus
R_front_hand R_forearm
R_weapon_bone R_forearm
R_front_hand01_01 R_front_hand
R_front_hand02_01 R_front_hand
R_front_hand03_01 R_front_hand
R_front_hand01_02 R_front_hand01_01
R_front_hand02_02 R_front_hand02_01
R_front_hand03_02 R_front_hand03_01
null_rope01_connect L_mid_tent01
Rope1_Seg01 null_rope01_connect
Rope1_Seg02 Rope1_Seg01
Rope1_Seg03 Rope1_Seg02
Rope1_Seg04 Rope1_Seg03
Rope1_Seg05 Rope1_Seg04
Rope1_Seg06 Rope1_Seg05
Rope1_Seg07 Rope1_Seg06
Rope1_Seg09 Rope1_Seg07
L_mid_hand01 Rope1_Seg09
L_mid_hand02 Rope1_Seg09
L_mid_hand03 Rope1_Seg09
null_rope02_connect R_mid_tent01
Rope2_Seg01 null_rope02_connect
Rope2_Seg02 Rope2_Seg01
Rope2_Seg03 Rope2_Seg02
Rope2_Seg04 Rope2_Seg03
Rope2_Seg05 Rope2_Seg04
Rope2_Seg06 Rope2_Seg05
Rope2_Seg07 Rope2_Seg06
Rope2_Seg09 Rope2_Seg07
R_mid_hand01 Rope2_Seg09
R_mid_hand02 Rope2_Seg09
R_mid_hand03 Rope2_Seg09
spine02 spine01
spine03 spine02
pelvis spine03
null_rope03_connect pelvis
null_rope04_connect pelvis
Rope3_Seg01 null_rope03_connect
Rope3_Seg02 Rope3_Seg01
Rope3_Seg03 Rope3_Seg02
Rope3_Seg04 Rope3_Seg03
Rope3_Seg05 Rope3_Seg04
Rope3_Seg06 Rope3_Seg05
Rope3_Seg07 Rope3_Seg06
Rope3_Seg08 Rope3_Seg07
Rope3_Seg09 Rope3_Seg08
R_rear_hand01 Rope3_Seg09
R_rear_hand02 Rope3_Seg09
R_rear_hand03 Rope3_Seg09
Rope4_Seg01 null_rope04_connect
Rope4_Seg02 Rope4_Seg01
Rope4_Seg03 Rope4_Seg02
Rope4_Seg04 Rope4_Seg03
Rope4_Seg05 Rope4_Seg04
Rope4_Seg06 Rope4_Seg05
Rope4_Seg07 Rope4_Seg06
Rope4_Seg08 Rope4_Seg07
Rope4_Seg09 Rope4_Seg08
L_rear_hand01 Rope4_Seg09
L_rear_hand02 Rope4_Seg09
L_rear_hand03 Rope4_Seg09
[BasePosition]
#SegmentName Tx, Ty, Tz, Rx, Ry, Rz, BoneLength
MASTER 0.000000 0.000000 0.000000 -90.000000 0.000000 0.000000 10.000000 
root 0.000000 0.000000 0.000000 0.000000 0.000000 0.000000 10.000000 
chest 0.000000 0.000000 0.000000 0.000000 0.000000 0.000000 10.000000 
L_mid_tent01 0.000000 0.000000 0.000000 0.000000 0.000000 0.000000 10.000000 
R_mid_tent01 0.000000 0.000000 0.000000 0.000000 0.000000 0.000000 10.000000 
spine01 0.000000 0.000000 0.000000 0.000000 0.000000 0.000000 10.000000 
Bip01_Neck 0.000000 0.000000 0.000000 0.000000 0.000000 0.000000 10.000000 
L_humerus 0.000000 0.000000 0.000000 0.000000 0.000000 0.000000 10.000000 
R_humerus 0.000000 0.000000 0.000000 0.000000 0.000000 0.000000 10.000000 
weapon_bone 0.000000 0.000000 0.000000 0.000000 0.000000 0.000000 10.000000 
Bip01_Head 0.000000 0.000000 0.000000 0.000000 0.000000 0.000000 10.000000 
eye_left_bone 0.000000 0.000000 0.000000 0.000000 0.000000 0.000000 10.000000 
eye_right_bone 0.000000 0.000000 0.000000 0.000000 0.000000 0.000000 10.000000 
L_forearm 0.000000 0.000000 0.000000 0.000000 0.000000 0.000000 10.000000 
L_front_hand 0.000000 0.000000 0.000000 0.000000 0.000000 0.000000 10.000000 
L_weapon_bone 0.000000 0.000000 0.000000 0.000000 0.000000 0.000000 10.000000 
L_front_hand01_01 0.000000 0.000000 0.000000 0.000000 0.000000 0.000000 10.000000 
L_front_hand02_01 0.000000 0.000000 0.000000 0.000000 0.000000 0.000000 10.000000 
L_front_hand03_01 0.000000 0.000000 0.000000 0.000000 0.000000 0.000000 10.000000 
L_front_hand01_02 0.000000 0.000000 0.000000 0.000000 0.000000 0.000000 10.000000 
L_front_hand02_02 0.000000 0.000000 0.000000 0.000000 0.000000 0.000000 10.000000 
L_front_hand03_02 0.000000 0.000000 0.000000 0.000000 0.000000 0.000000 10.000000 
R_forearm 0.000000 0.000000 0.000000 0.000000 0.000000 0.000000 10.000000 
R_front_hand 0.000000 0.000000 0.000000 0.000000 0.000000 0.000000 10.000000 
R_weapon_bone 0.000000 0.000000 0.000000 0.000000 0.000000 0.000000 10.000000 
R_front_hand01_01 0.000000 0.000000 0.000000 0.000000 0.000000 0.000000 10.000000 
R_front_hand02_01 0.000000 0.000000 0.000000 0.000000 0.000000 0.000000 10.000000 
R_front_hand03_01 0.000000 0.000000 0.000000 0.000000 0.000000 0.000000 10.000000 
R_front_hand01_02 0.000000 0.000000 0.000000 0.000000 0.000000 0.000000 10.000000 
R_front_hand02_02 0.000000 0.000000 0.000000 0.000000 0.000000 0.000000 10.000000 
R_front_hand03_02 0.000000 0.000000 0.000000 0.000000 0.000000 0.000000 10.000000 
null_rope01_connect 0.000000 0.000000 0.000000 0.000000 0.000000 0.000000 10.000000 
Rope1_Seg01 0.000000 0.000000 0.000000 0.000000 0.000000 0.000000 10.000000 
Rope1_Seg02 0.000000 0.000000 0.000000 0.000000 0.000000 0.000000 10.000000 
Rope1_Seg03 0.000000 0.000000 0.000000 0.000000 0.000000 0.000000 10.000000 
Rope1_Seg04 0.000000 0.000000 0.000000 0.000000 0.000000 0.000000 10.000000 
Rope1_Seg05 0.000000 0.000000 0.000000 0.000000 0.000000 0.000000 10.000000 
Rope1_Seg06 0.000000 0.000000 0.000000 0.000000 0.000000 0.000000 10.000000 
Rope1_Seg07 0.000000 0.000000 0.000000 0.000000 0.000000 0.000000 10.000000 
Rope1_Seg09 0.000000 0.000000 0.000000 0.000000 0.000000 0.000000 10.000000 
L_mid_hand01 0.000000 0.000000 0.000000 0.000000 0.000000 0.000000 10.000000 
L_mid_hand02 0.000000 0.000000 0.000000 0.000000 0.000000 0.000000 10.000000 
L_mid_hand03 0.000000 0.000000 0.000000 0.000000 0.000000 0.000000 10.000000 
null_rope02_connect 0.000000 0.000000 0.000000 0.000000 0.000000 0.000000 10.000000 
Rope2_Seg01 0.000000 0.000000 0.000000 0.000000 0.000000 0.000000 10.000000 
Rope2_Seg02 0.000000 0.000000 0.000000 0.000000 0.000000 0.000000 10.000000 
Rope2_Seg03 0.000000 0.000000 0.000000 0.000000 0.000000 0.000000 10.000000 
Rope2_Seg04 0.000000 0.000000 0.000000 0.000000 0.000000 0.000000 10.000000 
Rope2_Seg05 0.000000 0.000000 0.000000 0.000000 0.000000 0.000000 10.000000 
Rope2_Seg06 0.000000 0.000000 0.000000 0.000000 0.000000 0.000000 10.000000 
Rope2_Seg07 0.000000 0.000000 0.000000 0.000000 0.000000 0.000000 10.000000 
Rope2_Seg09 0.000000 0.000000 0.000000 0.000000 0.000000 0.000000 10.000000 
R_mid_hand01 0.000000 0.000000 0.000000 0.000000 0.000000 0.000000 10.000000 
R_mid_hand02 0.000000 0.000000 0.000000 0.000000 0.000000 0.000000 10.000000 
R_mid_hand03 0.000000 0.000000 0.000000 0.000000 0.000000 0.000000 10.000000 
spine02 0.000000 0.000000 0.000000 0.000000 0.000000 0.000000 10.000000 
spine03 0.000000 0.000000 0.000000 0.000000 0.000000 0.000000 10.000000 
pelvis 0.000000 0.000000 0.000000 0.000000 0.000000 0.000000 10.000000 
null_rope03_connect 0.000000 0.000000 0.000000 0.000000 0.000000 0.000000 10.000000 
null_rope04_connect 0.000000 0.000000 0.000000 0.000000 0.000000 0.000000 10.000000 
Rope3_Seg01 0.000000 0.000000 0.000000 0.000000 0.000000 0.000000 10.000000 
Rope3_Seg02 0.000000 0.000000 0.000000 0.000000 0.000000 0.000000 10.000000 
Rope3_Seg03 0.000000 0.000000 0.000000 0.000000 0.000000 0.000000 10.000000 
Rope3_Seg04 0.000000 0.000000 0.000000 0.000000 0.000000 0.000000 10.000000 
Rope3_Seg05 0.000000 0.000000 0.000000 0.000000 0.000000 0.000000 10.000000 
Rope3_Seg06 0.000000 0.000000 0.000000 0.000000 0.000000 0.000000 10.000000 
Rope3_Seg07 0.000000 0.000000 0.000000 0.000000 0.000000 0.000000 10.000000 
Rope3_Seg08 0.000000 0.000000 0.000000 0.000000 0.000000 0.000000 10.000000 
Rope3_Seg09 0.000000 0.000000 0.000000 0.000000 0.000000 0.000000 10.000000 
R_rear_hand01 0.000000 0.000000 0.000000 0.000000 0.000000 0.000000 10.000000 
R_rear_hand02 0.000000 0.000000 0.000000 0.000000 0.000000 0.000000 10.000000 
R_rear_hand03 0.000000 0.000000 0.000000 0.000000 0.000000 0.000000 10.000000 
Rope4_Seg01 0.000000 0.000000 0.000000 0.000000 0.000000 0.000000 10.000000 
Rope4_Seg02 0.000000 0.000000 0.000000 0.000000 0.000000 0.000000 10.000000 
Rope4_Seg03 0.000000 0.000000 0.000000 0.000000 0.000000 0.000000 10.000000 
Rope4_Seg04 0.000000 0.000000 0.000000 0.000000 0.000000 0.000000 10.000000 
Rope4_Seg05 0.000000 0.000000 0.000000 0.000000 0.000000 0.000000 10.000000 
Rope4_Seg06 0.000000 0.000000 0.000000 0.000000 0.000000 0.000000 10.000000 
Rope4_Seg07 0.000000 0.000000 0.000000 0.000000 0.000000 0.000000 10.000000 
Rope4_Seg08 0.000000 0.000000 0.000000 0.000000 0.000000 0.000000 10.000000 
Rope4_Seg09 0.000000 0.000000 0.000000 0.000000 0.000000 0.000000 10.000000 
L_rear_hand01 0.000000 0.000000 0.000000 0.000000 0.000000 0.000000 10.000000 
L_rear_hand02 0.000000 0.000000 0.000000 0.000000 0.000000 0.000000 10.000000 
L_rear_hand03 0.000000 0.000000 0.000000 0.000000 0.000000 0.000000 10.000000 
#Beginning of Data. Separated by tabs
#Fr	Tx	Ty	Tz	Rx	Ry	Rz	SF
[MASTER]
12 0.000000 0.000000 0.000000 0.001660 0.001660 0.001660 0.000000
13 0.000000 0.000000 0.000000 0.001660 0.001660 0.001660 0.000000
[root]
12 46.104237 -169.997650 2070.344971 -111.602325 -28.165539 -56.924015 2077.824219
13 55.134205 -171.642380 2082.747803 -111.909019 -28.375465 -56.989971 2090.535645
[chest]
12 -84.512650 -34.090519 0.000000 -2.772323 0.142317 174.902603 91.129311
13 -84.512650 -34.090519 0.000000 -2.762695 -2.004503 174.983353 91.129311
[L_mid_tent01]
12 27.300117 22.176792 -249.918762 -65.094070 51.112480 1.191084 252.381653
13 27.300079 22.176888 -249.918762 -72.469055 50.498421 -7.716253 252.381653
[R_mid_tent01]
12 23.228794 24.509907 226.238495 135.257477 -73.911018 129.607559 228.744751
13 23.228794 24.509907 226.238495 129.534256 -76.712372 137.308517 228.744751
[spine01]
12 -0.361383 -0.195265 0.000000 0.001938 0.001325 21.281443 0.410763
13 -0.361383 -0.195265 0.000000 0.001937 0.001326 21.221043 0.410763
[Bip01_Neck]
12 165.484543 71.581718 0.000119 175.896118 1.177290 24.871183 180.302734
13 165.484543 71.581718 0.000119 175.896118 1.177290 24.871183 180.302734
[L_humerus]
12 -13.983130 -135.272980 -120.471481 -117.357880 75.582809 -18.770420 181.680161
13 -13.983130 -135.272980 -120.471481 -102.680069 66.903046 -3.251101 181.680161
[R_humerus]
12 -13.983309 -135.273102 125.287651 130.665009 -38.615788 0.407476 184.909012
13 -13.983309 -135.273102 125.287651 130.324051 -37.408981 1.703868 184.909012
[weapon_bone]
12 235.964890 -300.705902 0.000000 0.000000 -89.951546 -128.212341 382.234833
13 235.964890 -300.705902 0.000000 0.000000 -89.951546 -128.212341 382.234833
[Bip01_Head]
12 233.223206 112.036575 4.514579 -31.032598 0.572515 -54.482876 258.777191
13 236.705688 107.465431 3.982773 -26.463329 0.673630 -54.604301 259.988983
[eye_left_bone]
12 35.462696 158.427048 -75.634651 -140.538834 -87.880768 41.353409 179.101456
13 35.626221 158.580399 -75.682304 -138.764435 -87.756500 39.568600 179.289658
[eye_right_bone]
12 38.706257 160.305664 53.359539 39.428856 -87.882065 41.384403 173.330078
13 39.091030 160.441055 53.302887 41.205570 -87.757813 39.596912 173.524170
[L_forearm]
12 322.776093 0.000000 -0.000119 0.000215 0.002337 -79.486221 322.776093
13 322.776093 0.000000 -0.000119 0.000419 0.002309 -69.420799 322.776093
[L_front_hand]
12 241.149185 -0.042021 -3.300071 -157.830826 2.837516 -14.010191 241.171753
13 241.149185 -0.042021 -3.300071 -147.674805 4.138689 -9.401378 241.171753
[L_weapon_bone]
12 156.183838 0.000000 0.000000 0.000850 0.002188 -47.554176 156.183838
13 156.183838 0.000000 0.000000 0.000738 0.002228 -53.360931 156.183838
[L_front_hand01_01]
12 86.095154 20.947098 -0.655860 -0.328275 -0.502941 70.987244 88.609184
13 86.095154 20.947098 -0.655860 -0.322008 -0.505197 70.390991 88.609184
[L_front_hand02_01]
12 86.935165 -11.437475 24.513514 148.025055 -57.766182 -53.920364 91.046425
13 86.935165 -11.437475 24.513514 147.230789 -57.447472 -52.980125 91.046425
[L_front_hand03_01]
12 86.637497 -14.123976 -20.424902 -147.982590 55.981445 -55.636463 90.126129
13 86.637497 -14.123976 -20.424902 -147.242508 55.663502 -54.743435 90.126129
[L_front_hand01_02]
12 71.020905 -0.000179 0.000030 0.001534 0.001777 -8.378850 71.020905
13 71.020905 -0.000179 0.000030 0.001534 0.001777 -8.378851 71.020905
[L_front_hand02_02]
12 71.020927 -0.000119 0.000060 0.001534 0.001777 -8.378850 71.020927
13 71.020927 -0.000119 0.000060 0.001534 0.001777 -8.378851 71.020927
[L_front_hand03_02]
12 71.020905 -0.000060 0.000060 0.001534 0.001777 -8.378850 71.020905
13 71.020905 -0.000060 0.000060 0.001534 0.001777 -8.378851 71.020905
[R_forearm]
12 322.776428 -0.000060 0.000030 0.151263 -0.148758 -46.190655 322.776428
13 322.776428 -0.000060 0.000030 0.143986 -0.153307 -44.133808 322.776428
[R_front_hand]
12 238.847015 -0.006795 2.210259 -2.635298 -10.645461 -26.312506 238.857239
13 238.847015 -0.006795 2.210259 -2.635298 -10.645461 -26.312506 238.857239
[R_weapon_bone]
12 155.664093 0.002503 -0.000030 0.003487 0.001180 -90.988930 155.664078
13 155.664093 0.002503 -0.000030 0.003487 0.001180 -90.988930 155.664078
[R_front_hand01_01]
12 87.624611 14.231146 22.918642 -154.633484 -59.950619 61.746037 91.683487
13 87.624611 14.231146 22.918642 -154.633499 -59.950619 61.746044 91.683487
[R_front_hand02_01]
12 89.356956 14.367283 -19.491137 154.602661 58.302849 63.744389 92.579636
13 89.356956 14.367283 -19.491137 154.602661 58.302849 63.744381 92.579636
[R_front_hand03_01]
12 87.286232 -22.307278 -0.143439 0.162155 -0.423168 -75.767921 90.091743
13 87.286232 -22.307278 -0.143439 0.162155 -0.423168 -75.767921 90.091743
[R_front_hand01_02]
12 71.020905 0.000060 0.000119 0.001922 0.001347 19.949331 71.020905
13 71.020905 0.000060 0.000119 0.002010 0.001212 27.806376 71.020905
[R_front_hand02_02]
12 71.020844 -0.000030 -0.000119 0.001922 0.001347 19.949331 71.020836
13 71.020844 -0.000030 -0.000119 0.002010 0.001212 27.806376 71.020836
[R_front_hand03_02]
12 71.020905 0.000000 0.000030 0.001922 0.001347 19.949331 71.020905
13 71.020905 0.000000 0.000030 0.002010 0.001212 27.806376 71.020905
[null_rope01_connect]
12 328.732483 0.000000 -0.000238 -136.568695 -18.460987 -113.559944 328.732483
13 328.732483 0.000000 -0.000238 -131.580765 -15.836012 -112.397835 328.732483
[Rope1_Seg01]
12 -0.000038 -0.000114 0.000101 82.259094 -38.761551 -155.704102 0.000157
13 -0.000038 -0.000114 0.000102 81.083832 -38.770645 -154.322510 0.000158
[Rope1_Seg02]
12 139.999863 -0.000179 0.000000 1.088790 -4.203600 -0.493626 139.999863
13 139.999863 -0.000179 0.000000 1.017928 -4.077888 -0.188000 139.999863
[Rope1_Seg03]
12 139.999924 0.000060 -0.000060 1.766291 -8.887462 -0.874833 139.999924
13 139.999924 0.000060 -0.000060 1.592095 -8.505214 -0.245682 139.999924
[Rope1_Seg04]
12 139.999924 -0.000060 -0.000119 -6.016783 -42.547100 7.608523 139.999924
13 139.999924 -0.000060 -0.000119 -6.464172 -40.146809 10.466608 139.999924
[Rope1_Seg05]
12 139.999832 0.000119 -0.000060 -6.920392 -41.055634 -37.320950 139.999832
13 139.999832 0.000119 -0.000060 -10.666950 -46.942230 -34.140488 139.999832
[Rope1_Seg06]
12 139.999954 0.000119 -0.000060 -2.390184 2.387733 -19.452141 139.999954
13 139.999954 0.000119 -0.000060 -3.729456 3.237134 -23.209469 139.999954
[Rope1_Seg07]
12 139.999985 0.000060 0.000000 0.051963 -1.119855 -6.154538 139.999985
13 139.999985 0.000060 0.000000 -0.065322 -1.008221 -7.020360 139.999985
[Rope1_Seg09]
12 121.602913 0.000119 -0.000089 -86.642723 -1.359072 0.848890 121.602913
13 121.602913 0.000119 -0.000089 -83.474922 -1.363055 0.847112 121.602913
[L_mid_hand01]
12 103.859421 1.038730 8.195221 104.407768 -4.894536 -1.788017 104.187431
13 103.859421 1.038730 8.195221 104.517319 -8.577770 -2.743145 104.187431
[L_mid_hand02]
12 105.572853 -4.139662 -10.864139 -136.001450 7.671368 -7.276721 106.211075
13 105.572853 -4.139662 -10.864139 -136.434753 10.300919 -10.054398 106.211075
[L_mid_hand03]
12 104.641464 17.579376 -3.913581 -18.715752 1.412811 8.062191 106.179977
13 104.641464 17.579376 -3.913581 -18.586889 2.627153 11.664845 106.179977
[null_rope02_connect]
12 328.732849 0.000179 -0.000119 -134.164185 10.821985 41.117992 328.732849
13 328.732849 0.000179 -0.000119 -137.378433 9.626184 39.667084 328.732849
[Rope2_Seg01]
12 -0.000020 0.000103 0.000000 -61.467762 34.079346 25.092607 0.000105
13 -0.000014 0.000103 0.000000 -64.604469 37.068771 22.536873 0.000104
[Rope2_Seg02]
12 139.999741 -0.000060 -0.000119 -2.507857 -15.999304 10.794131 139.999756
13 139.999741 -0.000060 -0.000119 -1.507504 -17.723732 8.729444 139.999756
[Rope2_Seg03]
12 140.000107 0.000030 0.000000 -0.759119 -17.133369 5.279424 140.000107
13 140.000107 0.000030 0.000000 -0.253880 -18.530725 2.764369 140.000107
[Rope2_Seg04]
12 139.999802 0.000000 -0.000060 0.935009 -10.729973 13.112160 139.999802
13 139.999802 0.000000 -0.000060 0.468123 -11.781817 12.492869 139.999802
[Rope2_Seg05]
12 139.999985 -0.000060 0.000119 8.349901 -3.030202 18.782055 139.999985
13 139.999985 -0.000060 0.000119 8.193328 -3.850305 19.132172 139.999985
[Rope2_Seg06]
12 139.999893 -0.000030 -0.000119 5.280110 -0.923996 8.750931 139.999893
13 139.999893 -0.000030 -0.000119 5.137727 -1.312399 8.580530 139.999893
[Rope2_Seg07]
12 139.999893 0.000060 -0.000060 3.422527 -0.236028 4.968818 139.999893
13 139.999893 0.000060 -0.000060 3.328187 -0.480240 4.823161 139.999893
[Rope2_Seg09]
12 121.338966 0.000089 -0.000060 33.793236 -1.359788 -0.847141 121.338966
13 121.338966 0.000089 -0.000060 33.793236 -1.359788 -0.847141 121.338966
[R_mid_hand01]
12 104.680779 11.144459 -10.335981 -22.898916 42.775772 60.849827 105.778534
13 104.680779 11.144459 -10.335981 -16.212063 45.237247 70.462852 105.778534
[R_mid_hand02]
12 104.070427 2.443552 8.231699 58.317043 -61.818993 29.085112 104.424065
13 104.070427 2.443552 8.231699 49.067368 -67.749771 39.286453 104.424065
[R_mid_hand03]
12 106.028137 -11.221827 -5.996406 -175.092896 15.051620 -68.999649 106.788818
13 106.028137 -11.221827 -5.996406 -177.101105 15.551026 -76.585571 106.788818
[spine02]
12 129.756927 0.001550 0.000119 0.454933 -4.034386 -14.281435 129.756927
13 129.756927 0.001550 0.000119 0.450452 -4.034917 -14.223920 129.756927
[spine03]
12 78.614792 0.080195 -4.899053 2.174173 3.683211 20.717054 78.767334
13 78.614761 0.080245 -4.899051 2.183323 3.674392 20.878166 78.767303
[pelvis]
12 169.435242 0.051022 0.000000 -0.062117 -0.179662 15.140018 169.435257
13 169.435242 0.051022 0.000000 -0.062141 -0.179654 15.154988 169.435257
[null_rope03_connect]
12 -1.257226 -2.466202 137.391083 129.418182 -61.215122 -48.827667 137.418976
13 -1.257226 -2.466202 137.391083 130.134537 -61.305927 -49.460800 137.418976
[null_rope04_connect]
12 -1.259640 -2.480268 -137.844437 129.418182 -61.215122 -48.827667 137.872513
13 -1.259640 -2.480268 -137.844437 130.134537 -61.305927 -49.460800 137.872513
[Rope3_Seg01]
12 0.000000 0.000000 0.000000 -124.631104 36.355423 -62.154362 0.000000
13 0.000000 0.000000 0.000000 -121.506638 33.213245 -56.522301 0.000000
[Rope3_Seg02]
12 139.999924 -0.000119 0.000060 1.014977 -12.731187 1.132602 139.999924
13 139.999924 -0.000119 0.000060 2.546838 -15.037751 1.811206 139.999924
[Rope3_Seg03]
12 139.999924 -0.000119 0.000119 3.601759 -18.815651 1.666873 139.999924
13 139.999924 -0.000119 0.000119 5.989042 -20.369150 2.472586 139.999924
[Rope3_Seg04]
12 139.999924 0.000119 0.000000 5.566159 -16.607967 -0.235899 139.999924
13 139.999924 0.000119 0.000000 8.344123 -18.987362 3.260475 139.999924
[Rope3_Seg05]
12 139.999924 -0.000238 0.000060 11.838680 -26.988716 13.337750 139.999924
13 139.999924 -0.000238 0.000060 11.131963 -24.012421 19.146822 139.999924
[Rope3_Seg06]
12 139.999893 -0.000119 -0.000060 7.606335 -16.319483 17.218016 139.999893
13 139.999893 -0.000119 -0.000060 4.848825 -9.689370 14.360952 139.999893
[Rope3_Seg07]
12 139.999771 0.000060 -0.000119 2.770303 -5.058199 6.702144 139.999771
13 139.999771 0.000060 -0.000119 1.863411 -3.369950 5.412036 139.999771
[Rope3_Seg08]
12 139.999985 -0.000060 0.000000 1.529534 -2.288825 3.286133 139.999985
13 139.999985 -0.000060 0.000000 1.166749 -1.670443 2.893485 139.999985
[Rope3_Seg09]
12 90.185997 -0.000179 -0.000060 69.244179 -1.360439 -0.847135 90.185997
13 90.185997 -0.000179 -0.000060 67.082436 -1.359782 -0.846053 90.185997
[R_rear_hand01]
12 103.366196 -6.073594 -10.757982 -161.721191 16.852900 -30.680975 104.101845
13 103.366196 -6.073594 -10.757982 -165.486221 20.162516 -42.491085 104.101845
[R_rear_hand02]
12 100.509819 12.039542 -7.992327 -34.103237 19.623930 29.402824 101.543350
13 100.509819 12.039542 -7.992327 -29.943001 25.833317 40.126579 101.543350
[R_rear_hand03]
12 101.539970 5.215704 5.435467 83.325722 -31.526073 7.364222 101.819031
13 101.539970 5.215704 5.435467 82.198982 -43.108852 9.209245 101.819031
[Rope4_Seg01]
12 0.000000 0.000000 0.000000 39.083759 -40.529099 -84.527222 0.000000
13 0.000000 0.000000 0.000000 39.043167 -42.195839 -84.545486 0.000000
[Rope4_Seg02]
12 139.999985 0.000060 0.000119 0.128111 -2.617361 -2.935147 139.999985
13 139.999985 0.000060 0.000119 0.107015 -2.241857 -2.854935 139.999985
[Rope4_Seg03]
12 139.999924 0.000000 -0.000238 0.068671 -4.580792 -5.140536 139.999924
13 139.999924 0.000000 -0.000238 0.025388 -3.879005 -4.939351 139.999924
[Rope4_Seg04]
12 139.999985 0.000000 0.000119 -0.463841 -10.476112 -12.091684 139.999985
13 139.999985 0.000000 0.000119 -0.581501 -8.736830 -11.316401 139.999985
[Rope4_Seg05]
12 139.999802 -0.000060 -0.000119 -19.752779 -24.680365 -41.132187 139.999802
13 139.999802 -0.000060 -0.000119 -18.813839 -22.698347 -42.613029 139.999802
[Rope4_Seg06]
12 139.999924 0.000000 0.000060 -65.092865 -8.713588 -32.164032 139.999924
13 139.999924 0.000000 0.000060 -60.140446 -6.862751 -35.322659 139.999924
[Rope4_Seg07]
12 139.999802 0.000000 0.000000 -59.370914 20.203503 -37.774517 139.999802
13 139.999802 0.000000 0.000000 -57.021374 19.892141 -40.292583 139.999802
[Rope4_Seg08]
12 139.999924 0.000000 0.000119 -7.412876 23.838137 -0.476163 139.999924
13 139.999924 0.000000 0.000119 -8.985088 26.431028 -3.437119 139.999924
[Rope4_Seg09]
12 90.185791 0.000060 0.000060 -153.715942 2.227239 0.851959 90.185791
13 90.185791 0.000060 0.000060 -155.865097 2.228680 0.852539 90.185791
[L_rear_hand01]
12 101.696655 -8.392275 -7.654577 -18.227737 -34.807476 116.961021 102.329041
13 101.696655 -8.392275 -7.654577 -12.874829 -36.868488 107.832764 102.329041
[L_rear_hand02]
12 102.726799 -1.568258 5.773216 76.732224 64.420486 164.128403 102.900848
13 102.726799 -1.568258 5.773216 71.484581 71.816628 158.486160 102.900848
[L_rear_hand03]
12 104.552910 9.721220 -10.420293 -174.245605 -24.028542 -114.495811 105.519653
13 104.552910 9.721220 -10.420293 -177.714203 -24.565960 -106.089035 105.519653
